<?xml version="1.0" encoding="utf-8"?>
<!-- Generator: Adobe Illustrator 17.0.0, SVG Export Plug-In . SVG Version: 6.00 Build 0)  -->
<!DOCTYPE svg PUBLIC "-//W3C//DTD SVG 1.1//EN" "http://www.w3.org/Graphics/SVG/1.1/DTD/svg11.dtd">
<svg version="1.1" id="Layer_1" xmlns="http://www.w3.org/2000/svg" xmlns:xlink="http://www.w3.org/1999/xlink" x="0px" y="0px"
	 width="158px" height="31.167px" viewBox="24.5 0 158 31.167" enable-background="new 24.5 0 158 31.167" xml:space="preserve">
<g>
	<g>
		<path fill="#FFFFFF" d="M40.825,30.277h-6.358c-0.631,0-1.141-0.511-1.141-1.141c0-0.631,0.511-1.141,1.141-1.141h5.217V12.987
			l-3.143-4.587c-0.13-0.19-0.2-0.415-0.2-0.645V2.859h-4.592v4.895c0,0.23-0.069,0.455-0.2,0.645l-3.143,4.587v16.148
			c0,0.631-0.511,1.141-1.141,1.141c-0.631,0-1.141-0.511-1.141-1.141V12.633c0-0.23,0.069-0.455,0.2-0.645l3.143-4.587V1.718
			c0-0.631,0.511-1.141,1.141-1.141h6.875c0.631,0,1.141,0.511,1.141,1.141v5.683l3.143,4.587c0.13,0.19,0.2,0.415,0.2,0.645v16.502
			C41.966,29.766,41.455,30.277,40.825,30.277z"/>
	</g>
</g>
<g>
	<path fill="#FFFFFF" d="M53.511,21.611l0.674-0.061c0.346-0.041,0.591-0.163,0.591-0.571v-9.49l-1.163-0.061V9.692h9.858v3.388
		l-2.082,0.143v-0.816c0-0.388-0.04-0.633-0.592-0.633h-3.531v3.613h5.021v2.082h-5.021v4.001l1.817,0.061v1.735h-5.572V21.611z"/>
	<path fill="#FFFFFF" d="M74.266,15.529c0,3.143-3.409,3.674-5.817,3.694c0.082,1.326,0.775,2.408,2.51,2.408
		c1.204,0,2.082-0.551,2.572-0.898l0.775,1.653c-0.327,0.286-1.673,1.143-3.592,1.143c-3.469,0-4.817-2.122-4.817-5.163
		c0-3.021,1.695-5.674,5.042-5.674C72.94,12.692,74.266,13.713,74.266,15.529z M70.797,14.427c-1.633,0-2.368,1.572-2.429,3.082
		c1.511-0.02,3.653-0.367,3.653-1.939C72.021,14.815,71.532,14.427,70.797,14.427z"/>
	<path fill="#FFFFFF" d="M81.408,21.57l1.164,0.061v1.633h-4.857v-1.551l0.674-0.061c0.367-0.041,0.592-0.163,0.592-0.653V10.937
		c0-0.367-0.204-0.469-0.51-0.49l-0.714-0.041V8.712h3.652V21.57z"/>
	<path fill="#FFFFFF" d="M89.592,21.57l1.164,0.061v1.633h-4.857v-1.551l0.673-0.061c0.367-0.041,0.592-0.163,0.592-0.653v-5.674
		c0-0.449-0.122-0.592-0.51-0.592l-0.714-0.04v-1.694h3.653V21.57z M88.163,8.631c0.897,0,1.551,0.673,1.551,1.53
		c0,0.857-0.654,1.49-1.571,1.49c-0.939,0-1.551-0.632-1.551-1.49C86.592,9.304,87.204,8.631,88.163,8.631z"/>
	<path fill="#FFFFFF" d="M95.142,15.325c0-0.449-0.122-0.612-0.51-0.612l-0.857-0.061v-1.653h3.449v1.326
		c0.367-0.694,1.489-1.632,3.224-1.632c2.265,0,3.694,1.531,3.694,5.184c0,3.755-1.776,5.694-4.47,5.694
		c-0.795,0-1.652-0.265-2.183-0.592v2.817l1.653,0.081v1.612h-5.265v-1.551l0.673-0.061c0.389-0.041,0.592-0.163,0.592-0.673V15.325
		z M99.55,14.672c-1.163,0-2.061,0.816-2.061,1.755v4.694c0.531,0.347,1.266,0.51,1.796,0.51c1.735,0,2.327-1.775,2.327-3.551
		C101.612,15.366,100.633,14.672,99.55,14.672z"/>
	<path fill="#FFFFFF" d="M116.102,15.529c0,3.143-3.409,3.674-5.817,3.694c0.082,1.326,0.775,2.408,2.51,2.408
		c1.204,0,2.082-0.551,2.572-0.898l0.775,1.653c-0.327,0.286-1.673,1.143-3.592,1.143c-3.469,0-4.817-2.122-4.817-5.163
		c0-3.021,1.695-5.674,5.042-5.674C114.775,12.692,116.102,13.713,116.102,15.529z M112.633,14.427
		c-1.633,0-2.368,1.572-2.429,3.082c1.511-0.02,3.653-0.367,3.653-1.939C113.857,14.815,113.367,14.427,112.633,14.427z"/>
	<path fill="#FFFFFF" d="M127.713,23.264v-1.653l0.674-0.061c0.347-0.041,0.592-0.163,0.592-0.571v-9.49l-1.164-0.061V9.692h4.919
		v1.653l-0.674,0.061c-0.347,0.041-0.592,0.163-0.592,0.653v9.103h3.388c0.428,0,0.469-0.266,0.469-0.653v-1.429l2.081,0.143v4.041
		H127.713z"/>
	<path fill="#FFFFFF" d="M149.204,15.529c0,3.143-3.409,3.674-5.817,3.694c0.082,1.326,0.775,2.408,2.51,2.408
		c1.204,0,2.082-0.551,2.572-0.898l0.775,1.653c-0.327,0.286-1.673,1.143-3.592,1.143c-3.469,0-4.817-2.122-4.817-5.163
		c0-3.021,1.695-5.674,5.042-5.674C147.877,12.692,149.204,13.713,149.204,15.529z M145.734,14.427
		c-1.633,0-2.368,1.572-2.429,3.082c1.511-0.02,3.653-0.367,3.653-1.939C146.959,14.815,146.469,14.427,145.734,14.427z"/>
	<path fill="#FFFFFF" d="M156.386,21.57l1.164,0.061v1.633h-4.857v-1.551l0.673-0.061c0.367-0.041,0.592-0.163,0.592-0.653v-5.674
		c0-0.449-0.122-0.592-0.51-0.592l-0.714-0.04v-1.694h3.653V21.57z M154.958,8.631c0.897,0,1.551,0.673,1.551,1.53
		c0,0.857-0.654,1.49-1.571,1.49c-0.939,0-1.551-0.632-1.551-1.49C153.386,9.304,153.999,8.631,154.958,8.631z"/>
	<path fill="#FFFFFF" d="M164.386,10.835v2.163h2.715l-0.204,1.714h-2.51v5.367c0,1.245,0.49,1.613,1.326,1.613
		c0.551,0,1.061-0.225,1.388-0.429l0.612,1.572c-0.612,0.428-1.633,0.714-2.592,0.714c-3.184,0-3.164-1.959-3.164-3.388v-5.449
		h-1.449l0.204-1.49c1.429-0.122,1.918-1.225,2.347-2.388H164.386z"/>
	<path fill="#FFFFFF" d="M178.591,15.529c0,3.143-3.409,3.674-5.817,3.694c0.082,1.326,0.775,2.408,2.51,2.408
		c1.204,0,2.082-0.551,2.572-0.898l0.775,1.653c-0.327,0.286-1.673,1.143-3.592,1.143c-3.469,0-4.817-2.122-4.817-5.163
		c0-3.021,1.695-5.674,5.042-5.674C177.264,12.692,178.591,13.713,178.591,15.529z M175.121,14.427
		c-1.633,0-2.368,1.572-2.429,3.082c1.511-0.02,3.653-0.367,3.653-1.939C176.345,14.815,175.856,14.427,175.121,14.427z"/>
</g>
</svg>
