<?xml version="1.0" encoding="utf-8"?>
<!-- Generator: Adobe Illustrator 17.0.0, SVG Export Plug-In . SVG Version: 6.00 Build 0)  -->
<!DOCTYPE svg PUBLIC "-//W3C//DTD SVG 1.1//EN" "http://www.w3.org/Graphics/SVG/1.1/DTD/svg11.dtd">
<svg version="1.1" id="Layer_2" xmlns="http://www.w3.org/2000/svg" xmlns:xlink="http://www.w3.org/1999/xlink" x="0px" y="0px"
	 width="896.068px" height="348.754px" viewBox="0 0 896.068 348.754" enable-background="new 0 0 896.068 348.754"
	 xml:space="preserve">
<g>
	<g>
		<g>
			<rect x="297.973" y="162.821" fill="#E7E1E2" width="48.5" height="43.812" transform="rotate(0) translate(0 0)"/>
				     
		</g>
	</g>
	
	
	
	
	<g>
		<g>
			<rect x="297.973" y="162.821" fill="#A0A0A0" width="48.5" height="22.261"/>
		</g>
	</g>
	<g>
		<g>
			<path fill="#0F375B" d="M444.219,152.321V15.311c0-5.523-4.478-10-10-10H209.226c-5.522,0-10,4.477-10,10v137.011H444.219z"/>
		</g>
		<g>
			<path fill="#FFFFFF" d="M445.219,153.321H198.226V15.311c0-6.065,4.935-11,11-11h224.993c6.065,0,11,4.935,11,11V153.321z
				 M200.226,151.321h242.993V15.311c0-4.962-4.037-9-9-9H209.226c-4.962,0-9,4.038-9,9V151.321z"/>
		</g>
	</g>
	<g>
		<path fill="#FFFFFF" d="M199.226,170.321c0,5.522,4.478,10,10,10h224.993c5.522,0,10-4.478,10-10v-18H199.226V170.321z"/>
		<path fill="#FFFFFF" d="M434.219,181.321H209.226c-6.065,0-11-4.935-11-11v-19h246.993v19
			C445.219,176.387,440.284,181.321,434.219,181.321z M200.226,153.321v17c0,4.963,4.038,9,9,9h224.993c4.963,0,9-4.037,9-9v-17
			H200.226z"/>
	</g>
	<g>
		<g>
			<rect x="207.226" y="12.311" fill="#D3F4EF" width="228.993" height="132.011"/>
		</g>
		<g>
			<g>
				<rect x="232.501" y="41.286" fill="#E6E9EE" width="187.895" height="103.035"/>
				<rect x="232.501" y="41.286" fill="#4CA1D6" width="187.895" height="73.084"/>
				<rect x="232.501" y="46.816" fill="#FFFFFF" width="187.895" height="5.529"/>
			</g>
			<g opacity="0.3">
				<rect x="232.501" y="41.286" fill="#175B8E" width="187.895" height="5.53"/>
			</g>
			<rect x="246.282" y="61.787" fill="#175B8E" width="61.833" height="39.667"/>
			<g>
				<rect x="251.656" y="123.87" fill="#4CA1D6" width="61.834" height="14.334"/>
				<rect x="339.407" y="123.87" fill="#4CA1D6" width="61.833" height="14.334"/>
			</g>
			<polygon fill="#4CA1D6" points="361.732,108.206 354.615,120.534 347.498,108.206 			"/>
			<polygon fill="#E21B25" points="271.035,74.503 283.362,81.62 271.035,88.737 			"/>
			<g>
				<rect x="327.448" y="61.787" fill="#FFFFFF" width="82.5" height="3.333"/>
				<rect x="327.448" y="68.787" fill="#FFFFFF" width="82.5" height="3.333"/>
				<rect x="327.448" y="75.786" fill="#FFFFFF" width="82.5" height="3.334"/>
				<rect x="327.448" y="82.786" fill="#FFFFFF" width="82.5" height="3.334"/>
				<rect x="327.448" y="89.786" fill="#FFFFFF" width="82.5" height="3.334"/>
				<rect x="327.448" y="96.786" fill="#FFFFFF" width="82.5" height="3.334"/>
				<rect x="327.448" y="103.786" fill="#FFFFFF" width="82.5" height="3.334"/>
			</g>
		</g>
		<polygon opacity="0.3" fill="#FFFFFF" points="207.226,12.311 207.226,144.321 436.219,12.311 		"/>
	</g>
	<g>
		<g>
			<circle fill="#E21B25" cx="322.222" cy="166.321" r="4.649"/>
		</g>
	</g>
	<g>
		<rect x="281.557" y="206.634" fill="#FFFFFF" width="81.332" height="6.334"/>
	</g>
</g>
<g>
	<g>
		<rect x="469.034" y="37.843" fill="#06273F" width="220.666" height="143.498"/>
	</g>
	<g>
		<rect x="477.034" y="45.843" fill="#D3F4EF" width="204.666" height="127.498"/>
		<g>
			<rect x="487.501" y="57.586" fill="#ABD5EF" width="187.895" height="103.035"/>
			<rect x="519.034" y="73.886" opacity="0.2" fill="#313D53" width="115" height="70.436"/>
			<rect x="487.501" y="63.115" fill="#FFFFFF" width="187.895" height="5.529"/>
			<g>
				<rect x="487.501" y="57.586" fill="#175B8E" width="187.895" height="5.529"/>
			</g>
			<g>
				<rect x="492.448" y="71.727" fill="#175B8E" width="9.752" height="8.026"/>
				<rect x="504.448" y="71.727" fill="#175B8E" width="9.752" height="8.026"/>
				<rect x="492.448" y="82.74" fill="#175B8E" width="9.752" height="8.025"/>
				<rect x="504.448" y="82.74" fill="#175B8E" width="9.752" height="8.025"/>
				<rect x="492.448" y="93.753" fill="#175B8E" width="9.752" height="8.026"/>
				<rect x="504.448" y="93.753" fill="#175B8E" width="9.752" height="8.026"/>
				<rect x="492.448" y="104.766" fill="#175B8E" width="9.752" height="8.027"/>
				<rect x="504.448" y="104.766" fill="#175B8E" width="9.752" height="8.027"/>
				<rect x="492.448" y="115.779" fill="#175B8E" width="9.752" height="8.026"/>
				<rect x="504.448" y="115.779" fill="#175B8E" width="9.752" height="8.026"/>
				<rect x="492.448" y="126.793" fill="#175B8E" width="9.752" height="8.025"/>
				<rect x="504.448" y="126.793" fill="#175B8E" width="9.752" height="8.025"/>
			</g>
			<g>
				<g>
					<g>
						<g>
							<path fill="#06273F" d="M571.134,135.149l-27.896-27.898l27.896-27.896l27.896,27.898L571.134,135.149z M544.222,107.251
								l26.912,26.914l26.912-26.911L571.134,80.34L544.222,107.251z"/>
						</g>
						<g>
							<rect x="569.467" y="78.182" fill="#FFFFFF" width="3.335" height="3.334"/>
							<path fill="#175B8E" d="M573.149,81.864h-4.031v-4.031h4.031V81.864z M569.815,81.168h2.638v-2.64h-2.638V81.168z"/>
						</g>
						<g>
							<rect x="597.362" y="105.585" fill="#FFFFFF" width="3.335" height="3.335"/>
							<path fill="#175B8E" d="M601.046,109.269h-4.031v-4.032h4.031V109.269z M597.711,108.572h2.638v-2.639h-2.638V108.572z"/>
						</g>
						<g>
							<rect x="541.57" y="105.585" fill="#FFFFFF" width="3.335" height="3.335"/>
							<path fill="#175B8E" d="M545.253,109.269h-4.031v-4.032h4.031V109.269z M541.918,108.572h2.639v-2.639h-2.639V108.572z"/>
						</g>
						<g>
							<rect x="569.467" y="133.482" fill="#FFFFFF" width="3.335" height="3.336"/>
							<path fill="#175B8E" d="M573.149,137.166h-4.031v-4.031h4.031V137.166z M569.815,136.47h2.638v-2.639h-2.638V136.47z"/>
						</g>
					</g>
				</g>
				<g>
					<polygon fill="#06273F" points="602.292,107.252 608.827,112.129 613.95,109.877 613.95,104.627 608.827,102.375 
						608.827,102.375 					"/>
					<rect x="615.133" y="104.628" fill="#06273F" width="0.901" height="5.248"/>
					<path fill="#F9A21D" d="M608.242,106.678h-5.181l-0.769,0.574l0.769,0.575h5.181c0.221,0.5,0.722,0.85,1.305,0.85
						c0.788,0,1.427-0.638,1.427-1.426c0-0.787-0.639-1.426-1.427-1.426C608.964,105.826,608.464,106.176,608.242,106.678z"/>
				</g>
			</g>
			<g>
				<g>
					<rect x="636.535" y="70.232" fill="#4CA1D6" width="34.221" height="19.04"/>
					<rect x="636.535" y="70.232" fill="#FFFFFF" width="34.221" height="2.213"/>
				</g>
				<g>
					<rect x="636.535" y="92.26" fill="#4CA1D6" width="34.221" height="14.769"/>
					<rect x="636.535" y="92.26" fill="#FFFFFF" width="34.221" height="2.213"/>
				</g>
				<g>
					<rect x="636.535" y="109.541" fill="#4CA1D6" width="34.221" height="14.77"/>
					<rect x="636.535" y="109.541" fill="#FFFFFF" width="34.221" height="2.213"/>
				</g>
				<g>
					<rect x="636.535" y="127.791" fill="#4CA1D6" width="34.221" height="14.77"/>
					<rect x="636.535" y="127.791" fill="#FFFFFF" width="34.221" height="2.213"/>
				</g>
			</g>
		</g>
		<polygon opacity="0.3" fill="#FFFFFF" points="477.034,45.843 477.034,173.341 681.7,45.843 		"/>
	</g>
	<g>
		<rect x="558.458" y="181.341" fill="#E7E1E2" width="41.818" height="22.752"/>
	</g>
	<g>
		<rect x="558.458" y="181.341" fill="#A0A0A0" width="41.818" height="3.741"/>
	</g>
	<g>
		<rect x="539.867" y="204.093" fill="#FFFFFF" width="79" height="8.875"/>
	</g>
</g>
<g>
	<path fill="#E7E1E2" d="M854.882,202.319h-9.706v-56.844c0-17.162-8.062-37.204-30.784-37.204v-9.705
		c24.218,0,40.489,18.851,40.489,46.909V202.319z"/>
	<path opacity="0.4" d="M854.882,202.319h-9.706v-56.844c0-17.162-8.062-37.204-30.784-37.204v-9.705
		c24.218,0,40.489,18.851,40.489,46.909V202.319z"/>
	<g>
		<rect x="816.657" y="202.484" fill="#E7E1E2" width="65.996" height="10.484"/>
		<rect x="826.946" y="202.484" opacity="0.6" fill="#FFFFFF" width="6.84" height="10.484"/>
		<rect x="849.656" y="202.484" opacity="0.2" width="32.998" height="10.484"/>
	</g>
	<g>
		<g>
			<circle fill="#F9A21D" cx="792.929" cy="112.535" r="9.113"/>
		</g>
		<g>
			<polygon fill="#E7E1E2" points="811.153,117.187 788.277,94.311 815.498,71.665 833.8,89.965 			"/>
			<polygon opacity="0.2" points="799.715,105.749 811.153,117.187 833.8,89.965 824.649,80.815 			"/>
		</g>
		<g>
			
				<rect x="775.223" y="104.091" transform="matrix(0.7071 0.7071 -0.7071 0.7071 310.6651 -530.5078)" fill="#E7E1E2" width="40.979" height="11.323"/>
			
				<rect x="784.524" y="94.703" transform="matrix(0.7071 0.7071 -0.7071 0.7071 301.2752 -526.6177)" opacity="0.6" fill="#FFFFFF" width="3.6" height="11.323"/>
			
				<rect x="792.711" y="111.335" transform="matrix(0.7071 0.7071 -0.7071 0.7071 317.8934 -533.4965)" opacity="0.2" width="20.489" height="11.323"/>
		</g>
		<g>
			
				<rect x="825.794" y="73.105" transform="matrix(0.7071 0.7072 -0.7072 0.7071 297.4918 -562.7672)" fill="#E21B25" width="4.421" height="9.166"/>
			
				<rect x="827.681" y="73.887" transform="matrix(0.707 0.7072 -0.7072 0.707 298.335 -563.1418)" opacity="0.2" width="2.211" height="9.166"/>
		</g>
	</g>
</g>
<g>
	<g>
		<g>
			<rect x="22.037" y="90.467" fill="#175B8E" width="89.332" height="122.501"/>
		</g>
		<g>
			<circle fill="#0F375B" cx="66.704" cy="162.354" r="27.281"/>
			<path opacity="0.2" d="M85.994,181.645c10.654-10.654,10.654-27.928,0-38.582l-38.581,38.582
				C58.066,192.298,75.341,192.298,85.994,181.645z"/>
			<path fill="#FFFFFF" d="M66.704,190.635c-15.594,0-28.281-12.687-28.281-28.281s12.687-28.281,28.281-28.281
				c15.594,0,28.281,12.687,28.281,28.281S82.298,190.635,66.704,190.635z M66.704,136.072c-14.492,0-26.281,11.79-26.281,26.281
				s11.789,26.281,26.281,26.281s26.281-11.79,26.281-26.281S81.195,136.072,66.704,136.072z"/>
		</g>
		<g>
			<circle fill="#175B8E" cx="66.704" cy="162.354" r="20.031"/>
			<path opacity="0.2" d="M52.539,176.518L52.539,176.518c7.823,7.822,20.507,7.822,28.33,0c7.822-7.822,7.822-20.506,0-28.328
				l-0.001-0.001L52.539,176.518z"/>
			<path fill="#D3F4EF" d="M66.704,183.385c-11.597,0-21.032-9.435-21.032-21.031c0-11.598,9.435-21.032,21.032-21.032
				c11.597,0,21.031,9.435,21.031,21.032C87.735,173.95,78.3,183.385,66.704,183.385z M66.704,143.321
				c-10.494,0-19.032,8.538-19.032,19.032c0,10.494,8.538,19.031,19.032,19.031c10.494,0,19.031-8.537,19.031-19.031
				C85.735,151.859,77.197,143.321,66.704,143.321z"/>
		</g>
		<g>
			<circle fill="#06273F" cx="66.704" cy="162.354" r="10.116"/>
			<path fill="#F9A21D" d="M66.704,173.469c-6.129,0-11.116-4.986-11.116-11.115c0-6.13,4.987-11.117,11.116-11.117
				s11.116,4.987,11.116,11.117C77.82,168.482,72.833,173.469,66.704,173.469z M66.704,153.236c-5.027,0-9.116,4.09-9.116,9.117
				c0,5.026,4.089,9.115,9.116,9.115c5.027,0,9.116-4.089,9.116-9.115C75.82,157.326,71.73,153.236,66.704,153.236z"/>
		</g>
		<g>
			<circle fill="#175B8E" cx="35.954" cy="200.104" r="7.5"/>
			<path opacity="0.2" d="M35.954,207.604c4.142,0,7.5-3.357,7.5-7.5h-15C28.454,204.246,31.812,207.604,35.954,207.604z"/>
			<path fill="#FFFFFF" d="M35.954,208.604c-4.687,0-8.5-3.814-8.5-8.5s3.813-8.5,8.5-8.5s8.5,3.814,8.5,8.5
				S40.641,208.604,35.954,208.604z M35.954,193.604c-3.584,0-6.5,2.916-6.5,6.5s2.916,6.5,6.5,6.5c3.584,0,6.5-2.916,6.5-6.5
				S39.538,193.604,35.954,193.604z"/>
		</g>
		<g>
			<circle fill="#D3F4EF" cx="66.704" cy="111.371" r="13.447"/>
			<path opacity="0.2" d="M76.212,120.88c5.25-5.251,5.25-13.767,0-19.018L57.195,120.88
				C62.446,126.131,70.961,126.131,76.212,120.88z"/>
			<path fill="#FFFFFF" d="M66.704,125.818c-7.966,0-14.447-6.481-14.447-14.447s6.481-14.447,14.447-14.447
				s14.447,6.481,14.447,14.447S74.67,125.818,66.704,125.818z M66.704,98.924c-6.863,0-12.447,5.584-12.447,12.447
				c0,6.863,5.584,12.447,12.447,12.447c6.863,0,12.447-5.584,12.447-12.447C79.151,104.508,73.567,98.924,66.704,98.924z"/>
		</g>
		<g>
			<circle fill="#06273F" cx="66.703" cy="111.371" r="7.87"/>
		</g>
		<g>
			<rect x="93.985" y="194.369" fill="#F9A21D" width="11.469" height="11.469"/>
			<path fill="#D3F4EF" d="M106.454,206.838H92.985v-13.469h13.469V206.838z M94.985,204.838h9.469v-9.469h-9.469V204.838z"/>
		</g>
		<g>
			<g>
				<circle fill="#E6E9EE" cx="52.952" cy="125.122" r="1.5"/>
			</g>
			<g>
				<circle fill="#E6E9EE" cx="80.455" cy="97.619" r="1.5"/>
			</g>
			<g>
				<circle fill="#E6E9EE" cx="80.455" cy="125.122" r="1.5"/>
			</g>
			<g>
				<circle fill="#E6E9EE" cx="52.952" cy="97.619" r="1.5"/>
			</g>
		</g>
		<g>
			<g>
				<circle fill="#E6E9EE" cx="43.233" cy="185.824" r="2"/>
			</g>
			<g>
				<circle fill="#E6E9EE" cx="90.174" cy="138.882" r="2"/>
			</g>
			<g>
				<circle fill="#E6E9EE" cx="90.174" cy="185.824" r="2"/>
			</g>
			<g>
				<circle fill="#E6E9EE" cx="43.233" cy="138.882" r="2"/>
			</g>
		</g>
		<g>
			<rect x="34.954" y="193.072" fill="#FFFFFF" width="2" height="5.625"/>
		</g>
	</g>
	<path opacity="0.2" d="M72.061,167.71c2.959-2.959,2.959-7.756,0.001-10.714L61.347,167.71
		C64.305,170.669,69.102,170.668,72.061,167.71z"/>
</g>
<g>
	<g>
		<g>
			<polygon fill="#F9A21D" points="755.902,157.137 753.912,156.93 757.849,119.089 772.772,112.86 773.542,114.706 
				759.716,120.478 			"/>
		</g>
	</g>
	<g>
		<polygon fill="#D3F4EF" points="764.062,213.009 738.752,213.009 735.204,160.021 767.61,160.021 		"/>
		<polygon opacity="0.2" points="751.407,213.009 764.062,213.009 767.61,160.021 751.407,160.021 		"/>
	</g>
	<g>
		<rect x="732.157" y="152.533" fill="#B0D2D3" width="38.5" height="7.488"/>
		<rect x="751.407" y="152.533" opacity="0.2" width="19.25" height="7.488"/>
	</g>
	<g>
		<circle fill="#F9A21D" cx="751.407" cy="179.408" r="9.583"/>
		<path fill="#E21B25" d="M751.407,189.991c-5.835,0-10.583-4.747-10.583-10.583c0-5.836,4.748-10.583,10.583-10.583
			c5.836,0,10.583,4.747,10.583,10.583C761.99,185.244,757.243,189.991,751.407,189.991z M751.407,170.825
			c-4.733,0-8.583,3.851-8.583,8.583c0,4.732,3.85,8.583,8.583,8.583c4.732,0,8.583-3.851,8.583-8.583
			C759.99,174.676,756.14,170.825,751.407,170.825z"/>
	</g>
</g>
<g>
	<g>
		<path fill="#175B8E" d="M687.16,195.175c-14.913,0-27.001,7.984-27.001,17.834h54C714.159,203.159,702.071,195.175,687.16,195.175
			z"/>
	</g>
	<g>
		<path fill="#FFFFFF" d="M678.784,198.425c12.375-1.291,15.729,8.382,23.892,10.206c5.112,1.143,8.158-0.773,7.964-4.423
			c-4.644-5.393-13.415-9.033-23.479-9.033c-12.47,0-22.958,5.584-26.062,13.172C662.815,205.169,667.4,199.612,678.784,198.425z"/>
	</g>
</g>
<g>
	<rect x="294.792" y="270.86" fill="#06273F" width="305.484" height="16.499"/>
</g>
<g>
	<g>
		<rect x="294.82" y="236.113" fill="#06273F" width="13.438" height="34.747"/>
	</g>
	<g>
		<rect x="586.837" y="236.113" fill="#06273F" width="13.439" height="34.747"/>
	</g>
</g>
<rect x="338.795" y="259.703" fill="#FFFFFF" width="218.479" height="11.157"/>
<g>
	<rect x="346.511" y="256.717" fill="#06273F" width="8.375" height="2.986"/>
	<rect x="358.678" y="256.717" fill="#06273F" width="8.375" height="2.986"/>
	<rect x="370.845" y="256.717" fill="#06273F" width="8.375" height="2.986"/>
	<rect x="383.012" y="256.717" fill="#06273F" width="93.544" height="2.986"/>
	<rect x="480.348" y="256.717" fill="#06273F" width="8.375" height="2.986"/>
	<rect x="492.515" y="256.717" fill="#06273F" width="8.375" height="2.986"/>
	<rect x="504.682" y="256.717" fill="#06273F" width="8.375" height="2.986"/>
	<rect x="516.849" y="256.717" fill="#06273F" width="8.375" height="2.986"/>
	<rect x="529.016" y="256.717" fill="#06273F" width="8.375" height="2.986"/>
	<rect x="541.183" y="256.717" fill="#06273F" width="8.375" height="2.986"/>
</g>
<g>
	<g>
		<rect x="133.464" y="188.385" fill="#06273F" width="51" height="24.583"/>
	</g>
	<g>
		<g>
			<path fill="#FFFFFF" d="M144.284,204.88c-1.889,0-3.426-1.537-3.426-3.427v-61.142c0-1.89,1.537-3.427,3.426-3.427h29.36
				c1.89,0,3.427,1.537,3.427,3.427v61.142c0,1.89-1.537,3.427-3.427,3.427H144.284z"/>
		</g>
		<g>
			<path fill="#0F375B" d="M176.071,201.453c0,1.34-1.087,2.427-2.427,2.427h-29.36c-1.34,0-2.426-1.087-2.426-2.427v-61.142
				c0-1.34,1.087-2.427,2.426-2.427h29.36c1.34,0,2.427,1.087,2.427,2.427V201.453z"/>
		</g>
		<g>
			<rect x="141.858" y="144.127" fill="#D3F4EF" width="34.213" height="52.508"/>
			<polygon opacity="0.2" fill="#FFFFFF" points="141.858,144.127 141.858,196.635 176.071,144.127 			"/>
		</g>
		<g>
			<rect x="148.964" y="140.085" fill="#F9A21D" width="20" height="2"/>
		</g>
		<g>
			<rect x="156.214" y="198.468" fill="#F9A21D" width="5.5" height="3.334"/>
		</g>
	</g>
	<rect x="135.902" y="204.88" fill="#175B8E" width="46.125" height="2"/>
</g>
<g>
	<g>
		<rect x="21.672" y="237.113" fill="#06273F" width="22.146" height="111.641"/>
	</g>
	<g>
		<rect x="851.251" y="237.113" fill="#06273F" width="23.146" height="111.641"/>
	</g>
</g>
<g>
	<g>
		<rect x="43.817" y="236.113" fill="#D3F4EF" width="250.975" height="59.46"/>
	</g>
	<g>
		<rect x="50.817" y="243.113" fill="#E7E1E2" width="236.975" height="45.46"/>
		<polygon opacity="0.4" fill="#6D767F" points="50.817,288.573 287.792,288.573 287.792,243.113 		"/>
		<path fill="#333B46" d="M288.792,289.573H49.817v-47.46h238.975V289.573z M51.817,287.573h234.975v-43.46H51.817V287.573z"/>
	</g>
	<g>
		<rect x="128.52" y="251.177" fill="#06273F" width="81.57" height="9.333"/>
	</g>
</g>
<g>
	<g>
		<rect x="600.276" y="236.113" fill="#D3F4EF" width="250.975" height="59.46"/>
	</g>
	<g>
		<rect x="607.276" y="243.113" fill="#E7E1E2" width="236.975" height="45.46"/>
		<polygon opacity="0.4" fill="#6D767F" points="607.276,288.573 844.251,288.573 844.251,243.113 		"/>
		<path fill="#313D53" d="M845.251,289.573H606.276v-47.46h238.975V289.573z M608.276,287.573h234.975v-43.46H608.276V287.573z"/>
	</g>
	<g>
		<rect x="684.979" y="251.177" fill="#06273F" width="81.57" height="9.333"/>
	</g>
</g>
<g>
	<rect x="1" y="213.968" fill="#06273F" width="894.068" height="22.146"/>
	<path fill="#06273F" d="M896.068,237.113H0v-24.145h896.068V237.113z M2,235.113h892.068v-20.145H2V235.113z"/>
</g>
<g>
	
		<rect x="393.033" y="166.028" transform="matrix(0.9967 0.0817 -0.0817 0.9967 15.7934 -32.4013)" fill="#D3F4EF" width="21.453" height="21.454"/>
	
		<rect x="393.744" y="166.057" transform="matrix(0.9967 0.0817 -0.0817 0.9967 15.0867 -32.4875)" fill="#0F375B" width="21.453" height="4.053"/>
</g>
<g>
	
		<rect x="385.528" y="168.254" transform="matrix(0.9933 0.1157 -0.1157 0.9933 23.3627 -44.6338)" fill="#F9A21D" width="21.453" height="21.453"/>
	
		<rect x="386.535" y="168.312" transform="matrix(0.9933 0.1157 -0.1157 0.9933 22.3694 -44.8074)" fill="#E21B25" width="21.453" height="4.053"/>
	
		<rect x="387.758" y="174.093" transform="matrix(0.9933 0.1156 -0.1156 0.9933 22.8243 -44.7111)" fill="#FFFFFF" width="18.065" height="0.561"/>
	
		<rect x="387.572" y="175.691" transform="matrix(0.9933 0.1157 -0.1157 0.9933 23.0199 -44.6991)" fill="#FFFFFF" width="18.066" height="0.562"/>
	
		<rect x="387.386" y="177.29" transform="matrix(0.9933 0.1157 -0.1157 0.9933 23.2024 -44.6651)" fill="#FFFFFF" width="18.066" height="0.561"/>
	
		<rect x="387.2" y="178.889" transform="matrix(0.9933 0.1157 -0.1157 0.9933 23.3871 -44.6346)" fill="#FFFFFF" width="18.066" height="0.56"/>
	
		<rect x="387.014" y="180.486" transform="matrix(0.9933 0.1157 -0.1157 0.9933 23.5702 -44.6015)" fill="#FFFFFF" width="18.065" height="0.561"/>
	
		<rect x="396.598" y="183.796" transform="matrix(0.9933 0.1157 -0.1157 0.9933 23.9822 -45.1105)" fill="#FFFFFF" width="8.13" height="0.56"/>
</g>
<g>
	<rect x="55.123" y="3.94" fill="#F6F5F5" width="69.668" height="65.533"/>
	<g>
		<rect x="70.693" y="0" fill="#0F375B" width="3.1" height="7.881"/>
		<rect x="77.779" y="0" fill="#0F375B" width="3.1" height="7.881"/>
		<rect x="84.863" y="0" fill="#0F375B" width="3.1" height="7.881"/>
		<rect x="91.949" y="0" fill="#0F375B" width="3.1" height="7.881"/>
		<rect x="99.035" y="0" fill="#0F375B" width="3.1" height="7.881"/>
		<rect x="106.119" y="0" fill="#0F375B" width="3.1" height="7.881"/>
	</g>
	<g>
		<rect x="95.492" y="21.669" fill="#E7E1E2" width="8" height="6.667"/>
		<rect x="105.027" y="21.669" fill="#E3C0C7" width="8" height="6.667"/>
		<rect x="114.562" y="21.669" fill="#E3C0C7" width="8" height="6.667"/>
	</g>
	<g>
		<rect x="57.352" y="30.932" fill="#E7E1E2" width="8" height="6.666"/>
		<rect x="66.887" y="30.932" fill="#E7E1E2" width="8" height="6.666"/>
		<rect x="76.422" y="30.932" fill="#E7E1E2" width="8" height="6.666"/>
		<rect x="85.957" y="30.932" fill="#E7E1E2" width="8" height="6.666"/>
		<rect x="95.492" y="30.932" fill="#E7E1E2" width="8" height="6.666"/>
		<rect x="105.027" y="30.932" fill="#E3C0C7" width="8" height="6.666"/>
		<rect x="114.562" y="30.932" fill="#E3C0C7" width="8" height="6.666"/>
	</g>
	<g>
		<rect x="57.352" y="40.193" fill="#E7E1E2" width="8" height="6.667"/>
		<rect x="66.887" y="40.193" fill="#E7E1E2" width="8" height="6.667"/>
		<rect x="76.422" y="40.193" fill="#E7E1E2" width="8" height="6.667"/>
		<path fill="#C40001" d="M75.922,39.693v7.667h9v-7.667H75.922z M83.922,46.36h-7v-5.667h7V46.36z"/>
		<rect x="85.957" y="40.193" fill="#E7E1E2" width="8" height="6.667"/>
		<rect x="95.492" y="40.193" fill="#E7E1E2" width="8" height="6.667"/>
		<rect x="105.027" y="40.193" fill="#E3C0C7" width="8" height="6.667"/>
		<rect x="114.562" y="40.193" fill="#E3C0C7" width="8" height="6.667"/>
	</g>
	<g>
		<rect x="57.352" y="49.455" fill="#E7E1E2" width="8" height="6.668"/>
		<rect x="66.887" y="49.455" fill="#E7E1E2" width="8" height="6.668"/>
		<rect x="76.422" y="49.455" fill="#E7E1E2" width="8" height="6.668"/>
		<rect x="85.957" y="49.455" fill="#E7E1E2" width="8" height="6.668"/>
		<rect x="95.492" y="49.455" fill="#E7E1E2" width="8" height="6.668"/>
		<rect x="105.027" y="49.455" fill="#E3C0C7" width="8" height="6.668"/>
		<rect x="114.562" y="49.455" fill="#E3C0C7" width="8" height="6.668"/>
	</g>
	<g>
		<rect x="57.352" y="58.717" fill="#E7E1E2" width="8" height="6.668"/>
		<rect x="66.887" y="58.717" fill="#E7E1E2" width="8" height="6.668"/>
		<rect x="76.422" y="58.717" fill="#E7E1E2" width="8" height="6.668"/>
		<rect x="85.957" y="58.717" fill="#E7E1E2" width="8" height="6.668"/>
		<rect x="95.492" y="58.717" fill="#E7E1E2" width="8" height="6.668"/>
		<rect x="105.027" y="58.717" fill="#E3C0C7" width="8" height="6.668"/>
		<rect x="114.562" y="58.717" fill="#E3C0C7" width="8" height="6.668"/>
	</g>
	<rect x="60.02" y="10.877" fill="#E7E1E2" width="59.875" height="1.125"/>
	<rect x="60.02" y="13.377" fill="#E7E1E2" width="59.875" height="1.125"/>
	<rect x="60.02" y="15.877" fill="#E7E1E2" width="59.875" height="1.125"/>
</g>
<rect x="800.909" y="193.404" fill="#E21B25" width="19.875" height="5.003"/>
<rect x="810.847" y="193.404" opacity="0.2" width="9.938" height="5.003"/>
</svg>
