<?xml version="1.0" encoding="utf-8"?>
<!-- Generator: Adobe Illustrator 17.0.0, SVG Export Plug-In . SVG Version: 6.00 Build 0)  -->
<!DOCTYPE svg PUBLIC "-//W3C//DTD SVG 1.1//EN" "http://www.w3.org/Graphics/SVG/1.1/DTD/svg11.dtd">
<svg version="1.1" id="Layer_1" xmlns="http://www.w3.org/2000/svg" xmlns:xlink="http://www.w3.org/1999/xlink" x="0px" y="0px"
	 width="16.167px" height="32.333px" viewBox="43.5 17.667 16.167 32.333" enable-background="new 43.5 17.667 16.167 32.333"
	 xml:space="preserve">
<path fill="#FFFFFF" d="M51.296,48.223c-0.37,0-0.741-0.148-0.963-0.444l-4.519-4.889c-0.519-0.519-0.444-1.333,0.074-1.852
	c0.519-0.519,1.333-0.444,1.852,0.074l3.556,3.852l3.556-3.852c0.519-0.519,1.333-0.593,1.852-0.074
	c0.519,0.519,0.593,1.333,0.074,1.852l-4.519,4.889C52.037,48.075,51.667,48.223,51.296,48.223z"/>
<path fill="#FFFFFF" d="M51.296,46.297c-0.741,0-1.333-0.593-1.333-1.333V20.001c0-0.741,0.593-1.333,1.333-1.333
	s1.333,0.593,1.333,1.333v24.963C52.63,45.704,52.037,46.297,51.296,46.297z"/>
</svg>
